<?xml version="1.0" encoding="UTF-8" standalone="no"?>
<svg
   xmlns:dc="http://purl.org/dc/elements/1.1/"
   xmlns:cc="http://creativecommons.org/ns#"
   xmlns:rdf="http://www.w3.org/1999/02/22-rdf-syntax-ns#"
   xmlns:svg="http://www.w3.org/2000/svg"
   xmlns="http://www.w3.org/2000/svg"
   version="1.1"
   id="svg2"
   viewBox="0 0 185.65166 54.66"
   height="15.426267mm"
   width="52.395023mm">
  <defs
     id="defs4" />
  <metadata
     id="metadata7">
    <rdf:RDF>
      <cc:Work
         rdf:about="">
        <dc:format>image/svg+xml</dc:format>
        <dc:type
           rdf:resource="http://purl.org/dc/dcmitype/StillImage" />
        <dc:title></dc:title>
      </cc:Work>
    </rdf:RDF>
  </metadata>
  <g
     transform="translate(-52.88846,-310.74649)"
     id="layer1">
    <g
       style="fill:#000000"
       transform="translate(-162.13927,129.3129)"
       id="layer1-5">
      <g
         id="flowRoot3336"
         style="font-style:normal;font-weight:normal;font-size:40px;line-height:125%;font-family:sans-serif;letter-spacing:0px;word-spacing:0px;fill:#000000;fill-opacity:1;stroke:none;stroke-width:1px;stroke-linecap:butt;stroke-linejoin:miter;stroke-opacity:1">
        <path
           id="path3668"
           style="font-style:normal;font-variant:normal;font-weight:bold;font-stretch:normal;font-size:60px;font-family:Phenomena;-inkscape-font-specification:'Phenomena Bold';fill:#000000"
           d="m 229.66773,182.21359 0,17.46 -9.24,0 0,-17.46 c 0,-0.48 -0.3,-0.78 -0.78,-0.78 l -3.78,0 c -0.54,0 -0.84,0.3 -0.84,0.78 l 0,40.38 c 0,0.54 0.3,0.84 0.84,0.84 l 3.78,0 c 0.48,0 0.78,-0.3 0.78,-0.84 l 0,-17.94 9.24,0 0,17.94 c 0,0.54 0.3,0.84 0.84,0.84 l 3.78,0 c 0.48,0 0.78,-0.3 0.78,-0.84 l 0,-40.38 c 0,-0.48 -0.3,-0.78 -0.78,-0.78 l -3.78,0 c -0.54,0 -0.84,0.3 -0.84,0.78 z" />
        <path
           id="path3670"
           style="font-style:normal;font-variant:normal;font-weight:bold;font-stretch:normal;font-size:60px;font-family:Phenomena;-inkscape-font-specification:'Phenomena Bold';fill:#000000"
           d="m 241.92367,193.43359 c -0.54,0 -0.84,0.3 -0.84,0.84 l 0,20.04 c 0,5.7 3.78,9.78 9.36,9.78 5.58,0 9.36,-4.08 9.36,-9.78 l 0,-20.04 c 0,-0.54 -0.3,-0.84 -0.84,-0.84 l -3.48,0 c -0.54,0 -0.84,0.3 -0.84,0.84 l 0,20.22 c 0,2.82 -1.56,4.74 -4.2,4.74 -2.64,0 -4.2,-1.92 -4.2,-4.74 l 0,-20.22 c 0,-0.54 -0.3,-0.84 -0.84,-0.84 l -3.48,0 z" />
        <path
           id="path3672"
           style="font-style:normal;font-variant:normal;font-weight:bold;font-stretch:normal;font-size:60px;font-family:Phenomena;-inkscape-font-specification:'Phenomena Bold';fill:#000000"
           d="m 275.59867,192.77359 c -2.1,0 -3.78,0.84 -4.98,2.22 l 0,-12.78 c 0,-0.48 -0.3,-0.78 -0.84,-0.78 l -3.48,0 c -0.54,0 -0.84,0.3 -0.84,0.78 l 0,32.1 c 0,5.7 3.84,9.78 9.54,9.78 5.76,0 9.54,-4.08 9.54,-9.78 l 0,-11.76 c 0,-5.7 -3.54,-9.78 -8.94,-9.78 z m 3.84,21.72 c 0,2.82 -1.68,4.68 -4.44,4.68 -2.76,0 -4.38,-1.86 -4.38,-4.68 l 0,-12.12 c 0,-2.82 1.62,-4.68 4.38,-4.68 2.76,0 4.44,1.86 4.44,4.68 l 0,12.12 z" />
        <path
           id="path3674"
           style="font-style:normal;font-variant:normal;font-weight:bold;font-stretch:normal;font-size:60px;font-family:Phenomena;-inkscape-font-specification:'Phenomena Bold';fill:#000000"
           d="m 299.15336,192.77359 c -2.1,0 -3.78,0.84 -4.98,2.22 l 0,-12.78 c 0,-0.48 -0.3,-0.78 -0.84,-0.78 l -3.48,0 c -0.54,0 -0.84,0.3 -0.84,0.78 l 0,32.1 c 0,5.7 3.84,9.78 9.54,9.78 5.76,0 9.54,-4.08 9.54,-9.78 l 0,-11.76 c 0,-5.7 -3.54,-9.78 -8.94,-9.78 z m 3.84,21.72 c 0,2.82 -1.68,4.68 -4.44,4.68 -2.76,0 -4.38,-1.86 -4.38,-4.68 l 0,-12.12 c 0,-2.82 1.62,-4.68 4.38,-4.68 2.76,0 4.44,1.86 4.44,4.68 l 0,12.12 z" />
        <path
           id="path3676"
           style="font-style:normal;font-variant:normal;font-weight:bold;font-stretch:normal;font-size:60px;font-family:Phenomena;-inkscape-font-specification:'Phenomena Bold';fill:#000000"
           d="m 316.33117,189.65359 c 1.74,0 3.12,-1.44 3.12,-3.06 0,-1.8 -1.38,-3.12 -3.12,-3.12 -1.8,0 -3.06,1.32 -3.06,3.12 0,1.74 1.26,3.06 3.06,3.06 z m -1.74,33.78 3.48,0 c 0.54,0 0.84,-0.3 0.84,-0.84 l 0,-28.38 c 0,-0.48 -0.3,-0.78 -0.84,-0.78 l -3.48,0 c -0.54,0 -0.84,0.3 -0.84,0.78 l 0,28.38 c 0,0.54 0.3,0.84 0.84,0.84 z" />
        <path
           id="path3678"
           style="font-style:normal;font-variant:normal;font-weight:bold;font-stretch:normal;font-size:60px;font-family:Phenomena;-inkscape-font-specification:'Phenomena Bold';fill:#000000"
           d="m 325.59555,223.43359 3.48,0 c 0.54,0 0.84,-0.3 0.84,-0.84 l 0,-20.22 c 0,-2.82 1.56,-4.74 4.2,-4.74 2.64,0 4.2,1.92 4.2,4.74 l 0,20.22 c 0,0.54 0.3,0.84 0.84,0.84 l 3.48,0 c 0.54,0 0.84,-0.3 0.84,-0.84 l 0,-20.04 c 0,-5.7 -3.78,-9.78 -9.36,-9.78 -5.58,0 -9.36,4.08 -9.36,9.78 l 0,20.04 c 0,0.54 0.3,0.84 0.84,0.84 z" />
        <path
           id="path3680"
           style="font-style:normal;font-variant:normal;font-weight:bold;font-stretch:normal;font-size:60px;font-family:Phenomena;-inkscape-font-specification:'Phenomena Bold';fill:#000000"
           d="m 358.25055,192.77359 c -5.76,0 -9.6,4.08 -9.6,9.78 l 0,10.32 c 0,5.7 3.84,9.78 9.18,9.78 1.86,0 3.54,-0.78 4.8,-2.1 l 0,5.94 c 0,2.94 -1.62,4.68 -4.38,4.68 -2.58,0 -4.2,-1.74 -4.38,-4.74 -0.06,-0.6 -0.36,-0.84 -0.84,-0.84 l -3.54,0 c -0.54,0 -0.84,0.3 -0.78,0.84 0.24,5.88 3.96,9.66 9.54,9.66 5.82,0 9.54,-3.84 9.54,-9.78 l 0,-23.76 c 0,-5.7 -3.84,-9.78 -9.54,-9.78 z m 0,25.02 c -2.76,0 -4.44,-1.92 -4.44,-4.74 l 0,-10.68 c 0,-2.82 1.68,-4.68 4.44,-4.68 2.76,0 4.38,1.86 4.38,4.68 l 0,10.68 c 0,2.82 -1.62,4.74 -4.38,4.74 z" />
      </g>
      <g
         id="flowRoot3336-3"
         style="font-style:normal;font-weight:normal;font-size:40px;line-height:125%;font-family:sans-serif;letter-spacing:0px;word-spacing:0px;fill:#000000;fill-opacity:1;stroke:none;stroke-width:1px;stroke-linecap:butt;stroke-linejoin:miter;stroke-opacity:1"
         transform="translate(162.14935,37.496879)">
        <path
           id="path3683"
           style="font-style:normal;font-variant:normal;font-weight:bold;font-stretch:normal;font-size:22.5px;font-family:Phenomena;-inkscape-font-specification:'Phenomena Bold';fill:#000000"
           d="m 212.98023,184.59609 c 0.72,0 1.2825,-0.54 1.2825,-1.26 0,-0.7425 -0.5625,-1.26 -1.2825,-1.26 -0.72,0 -1.26,0.5175 -1.26,1.26 0,0.72 0.54,1.26 1.26,1.26 z" />
        <path
           id="path3685"
           style="font-style:normal;font-variant:normal;font-weight:bold;font-stretch:normal;font-size:22.5px;font-family:Phenomena;-inkscape-font-specification:'Phenomena Bold';fill:#000000"
           d="m 215.92035,184.37109 1.305,0 c 0.2025,0 0.315,-0.1125 0.315,-0.315 l 0,-7.5825 c 0,-1.0575 0.585,-1.7775 1.575,-1.7775 0.99,0 1.575,0.72 1.575,1.7775 l 0,7.5825 c 0,0.2025 0.1125,0.315 0.315,0.315 l 1.305,0 c 0.2025,0 0.315,-0.1125 0.315,-0.315 l 0,-7.515 c 0,-2.1375 -1.4175,-3.6675 -3.51,-3.6675 -2.0925,0 -3.51,1.53 -3.51,3.6675 l 0,7.515 c 0,0.2025 0.1125,0.315 0.315,0.315 z" />
        <path
           id="path3687"
           style="font-style:normal;font-variant:normal;font-weight:bold;font-stretch:normal;font-size:22.5px;font-family:Phenomena;-inkscape-font-specification:'Phenomena Bold';fill:#000000"
           d="m 228.12098,184.59609 c 2.025,0 3.4425,-1.395 3.555,-3.4875 0,-0.18 -0.1125,-0.2925 -0.2925,-0.2925 l -1.3275,0 c -0.18,0 -0.2925,0.09 -0.315,0.2925 -0.0675,0.99 -0.675,1.665 -1.5975,1.665 -1.035,0 -1.6425,-0.72 -1.6425,-1.755 l 0,-1.17 1.665,0 c 2.1375,0 3.5775,-1.4175 3.5775,-3.3975 0,-2.07 -1.485,-3.5775 -3.6,-3.555 -2.16,0 -3.555,1.485 -3.5775,3.6225 l 0,4.41 c 0,2.205 1.44,3.6675 3.555,3.6675 z m -1.62,-6.5025 0,-1.5975 c 0,-1.08 0.585,-1.7775 1.6425,-1.7775 1.035,0 1.665,0.6975 1.665,1.7775 0,0.945 -0.6075,1.5975 -1.6425,1.5975 l -1.665,0 z" />
        <path
           id="path3689"
           style="font-style:normal;font-variant:normal;font-weight:bold;font-stretch:normal;font-size:22.5px;font-family:Phenomena;-inkscape-font-specification:'Phenomena Bold';fill:#000000"
           d="m 238.21504,182.61609 -0.2475,0 c -1.1475,0 -1.7325,-0.72 -1.7325,-2.1375 l 0,-5.6025 1.7325,0 c 0.18,0 0.2925,-0.1125 0.2925,-0.2925 l 0,-1.17 c 0,-0.18 -0.1125,-0.2925 -0.2925,-0.2925 l -1.7325,0 0,-2.9025 c 0,-0.2025 -0.1125,-0.315 -0.2925,-0.315 l -1.305,0 c -0.2025,0 -0.315,0.1125 -0.315,0.315 l 0,2.9025 -1.26,0 c -0.18,0 -0.2925,0.1125 -0.2925,0.2925 l 0,1.17 c 0,0.18 0.1125,0.2925 0.2925,0.2925 l 1.26,0 0,5.58 c 0,2.475 1.3275,3.9825 3.555,3.9825 l 0.3375,0 c 0.2025,0 0.315,-0.1125 0.315,-0.2925 l 0,-1.2375 c 0,-0.18 -0.1125,-0.2925 -0.315,-0.2925 z" />
      </g>
    </g>
  </g>
</svg>
