<?xml version="1.0" encoding="UTF-8" standalone="no"?>
<!-- Created with Inkscape (http://www.inkscape.org/) -->

<svg
   xmlns:dc="http://purl.org/dc/elements/1.1/"
   xmlns:cc="http://creativecommons.org/ns#"
   xmlns:rdf="http://www.w3.org/1999/02/22-rdf-syntax-ns#"
   xmlns:svg="http://www.w3.org/2000/svg"
   xmlns="http://www.w3.org/2000/svg"
   xmlns:xlink="http://www.w3.org/1999/xlink"
   xmlns:sodipodi="http://sodipodi.sourceforge.net/DTD/sodipodi-0.dtd"
   xmlns:inkscape="http://www.inkscape.org/namespaces/inkscape"
   width="168.73799mm"
   height="56.444443mm"
   viewBox="0 0 597.89052 199.99999"
   id="svg4155"
   version="1.1"
   inkscape:version="0.91 r13725"
   sodipodi:docname="logo.svg"
   inkscape:export-filename="/home/john/Documents/Hubbing.net/Landing page/dev/hubbing.github.io/images/logo.png"
   inkscape:export-xdpi="75.260002"
   inkscape:export-ydpi="75.260002">
  <defs
     id="defs4157">
    <linearGradient
       gradientUnits="userSpaceOnUse"
       y2="625.83868"
       x2="470.29367"
       y1="423.30591"
       x1="673.33911"
       id="linearGradient4159-9-2"
       xlink:href="#linearGradient4155"
       inkscape:collect="always"
       gradientTransform="matrix(0.98146681,0,0,0.98146681,-338.42351,-287.9748)" />
    <linearGradient
       inkscape:collect="always"
       id="linearGradient4155">
      <stop
         style="stop-color:#23e7a0;stop-opacity:1"
         offset="0"
         id="stop4157" />
      <stop
         style="stop-color:#2fa1de;stop-opacity:1"
         offset="1"
         id="stop4159" />
    </linearGradient>
    <linearGradient
       inkscape:collect="always"
       xlink:href="#linearGradient4155"
       id="linearGradient4216"
       x1="737.53485"
       y1="312.78076"
       x2="537.32343"
       y2="513.78949"
       gradientUnits="userSpaceOnUse" />
    <linearGradient
       inkscape:collect="always"
       xlink:href="#linearGradient4155"
       id="linearGradient4811"
       gradientUnits="userSpaceOnUse"
       x1="737.53485"
       y1="312.78076"
       x2="537.32343"
       y2="513.78949" />
    <linearGradient
       inkscape:collect="always"
       xlink:href="#linearGradient4155"
       id="linearGradient4813"
       gradientUnits="userSpaceOnUse"
       x1="737.53485"
       y1="312.78076"
       x2="537.32343"
       y2="513.78949" />
    <linearGradient
       inkscape:collect="always"
       xlink:href="#linearGradient4155"
       id="linearGradient4815"
       gradientUnits="userSpaceOnUse"
       x1="737.53485"
       y1="312.78076"
       x2="537.32343"
       y2="513.78949" />
  </defs>
  <sodipodi:namedview
     id="base"
     pagecolor="#ffffff"
     bordercolor="#666666"
     borderopacity="1.0"
     inkscape:pageopacity="0.0"
     inkscape:pageshadow="2"
     inkscape:zoom="0.49497475"
     inkscape:cx="273.73368"
     inkscape:cy="205.12351"
     inkscape:document-units="px"
     inkscape:current-layer="layer1"
     showgrid="false"
     inkscape:snap-global="false"
     fit-margin-top="0"
     fit-margin-left="0"
     fit-margin-right="0"
     fit-margin-bottom="0"
     inkscape:window-width="1920"
     inkscape:window-height="1012"
     inkscape:window-x="0"
     inkscape:window-y="26"
     inkscape:window-maximized="1" />
  <metadata
     id="metadata4160">
    <rdf:RDF>
      <cc:Work
         rdf:about="">
        <dc:format>image/svg+xml</dc:format>
        <dc:type
           rdf:resource="http://purl.org/dc/dcmitype/StillImage" />
        <dc:title></dc:title>
      </cc:Work>
    </rdf:RDF>
  </metadata>
  <g
     inkscape:label="Layer 1"
     inkscape:groupmode="layer"
     id="layer1"
     transform="translate(-122.85714,-126.64792)">
    <rect
       style="opacity:1;fill:#f2f2f2;fill-opacity:0;stroke:none;stroke-width:22;stroke-miterlimit:4;stroke-dasharray:none;stroke-opacity:1"
       id="rect4325"
       width="200"
       height="200"
       x="122.85715"
       y="126.64792" />
    <path
       style="fill:#000000"
       d=""
       id="path3353"
       inkscape:connector-curvature="0" />
    <path
       style="fill:#000000"
       d=""
       id="path3351"
       inkscape:connector-curvature="0" />
    <path
       style="fill:#000000"
       d=""
       id="path3349"
       inkscape:connector-curvature="0" />
    <path
       inkscape:connector-curvature="0"
       id="path4147-8-9"
       d="m 158.89637,270.96713 -1.42607,-1.42605 0,-38.58393 c 0,-38.15458 0.0134,-38.60096 1.20415,-40.11475 1.0083,-1.28184 1.6674,-1.53083 4.05231,-1.53083 l 2.84816,0 0.15987,31.27842 0.15988,31.27843 1.67247,2.41286 c 2.50529,3.61439 6.21544,5.14393 13.43328,5.538 10.79623,0.58944 19.62259,3.24985 26.87494,8.10052 2.35052,1.57214 4.1629,2.96924 4.02746,3.10467 -0.13545,0.13543 -1.45817,-0.0255 -2.9395,-0.35735 -9.60041,-2.15149 -26.08819,-1.90321 -39.87321,0.60047 -7.8492,1.42559 -8.48648,1.40682 -10.19374,-0.30046 z m 117.09603,0.2549 c -12.81059,-2.44632 -29.7828,-2.686 -39.29224,-0.55491 -1.48133,0.33198 -2.80415,0.49278 -2.93949,0.35735 -0.49555,-0.49553 8.56977,-6.11397 11.84375,-7.34048 6.6195,-2.47973 14.74389,-4.0276 21.38263,-4.07381 3.98741,-0.0277 7.3024,-1.32406 9.8129,-3.8373 3.3043,-3.30782 3.25935,-2.81269 3.25935,-35.94066 l 0,-30.52065 2.86273,0 c 2.40077,0 3.05718,0.24708 4.06701,1.53083 1.19072,1.51379 1.20416,1.96017 1.20416,40.11475 l 0,38.58393 -1.42607,1.42605 c -1.70029,1.70026 -3.03989,1.73194 -10.77473,0.2549 z m -60.71354,-7.08759 c -4.47902,-3.67152 -13.74171,-8.1879 -20.03783,-9.77013 -2.71264,-0.6817 -8.43535,-1.56549 -12.71711,-1.96401 -6.39081,-0.59477 -7.92669,-0.91824 -8.57596,-1.80617 -0.64766,-0.88573 -0.79092,-7.79632 -0.79092,-38.15398 l 0,-37.07235 1.24427,-1.24427 c 1.16833,-1.16832 1.63815,-1.22364 7.69812,-0.90627 12.71492,0.66589 23.44407,4.92106 30.85041,12.23528 2.31106,2.28224 4.63213,4.98999 5.15801,6.01723 0.8626,1.6851 0.94142,5.4682 0.80646,38.69494 l -0.14948,36.82726 -3.48597,-2.85753 z m 11.32927,-34.00521 0,-37.10422 1.67192,-2.58297 c 3.52417,-5.44466 10.2317,-10.60614 17.57582,-13.52449 5.78928,-2.30052 10.56343,-3.29403 17.70822,-3.68507 6.07007,-0.33222 6.52773,-0.27924 7.69804,0.89105 l 1.24429,1.24427 0,37.18908 c 0,36.65963 -0.0167,37.20347 -1.18002,38.20012 -0.87134,0.74651 -3.1135,1.1874 -8.56967,1.68508 -14.37476,1.31118 -24.51194,5.10452 -33.38881,12.49408 l -2.75979,2.29731 0,-37.10424 z"
       style="fill:url(#linearGradient4159-9-2);fill-opacity:1" />
    <g
       transform="translate(-414.25937,-186.99646)"
       id="g4205"
       style="fill:url(#linearGradient4216);fill-opacity:1">
      <circle
         r="24.974619"
         cy="488.66974"
         cx="562.09113"
         id="path4171-9"
         style="opacity:1;fill:url(#linearGradient4811);fill-opacity:1;stroke:none;stroke-width:22;stroke-miterlimit:4;stroke-dasharray:none;stroke-opacity:1" />
      <circle
         r="24.974615"
         cy="338.66974"
         cx="712.09113"
         id="path4171-9-5"
         style="opacity:1;fill:url(#linearGradient4813);fill-opacity:1;stroke:none;stroke-width:22;stroke-miterlimit:4;stroke-dasharray:none;stroke-opacity:1" />
      <circle
         r="24.974615"
         cy="338.66974"
         cx="562.09113"
         id="path4171-9-9"
         style="opacity:1;fill:url(#linearGradient4815);fill-opacity:1;stroke:none;stroke-width:22;stroke-miterlimit:4;stroke-dasharray:none;stroke-opacity:1" />
    </g>
    <g
       id="g4829"
       transform="translate(0,-2.235389)">
      <text
         xml:space="preserve"
         style="font-style:normal;font-weight:normal;font-size:54.91664886px;line-height:125%;font-family:sans-serif;letter-spacing:0px;word-spacing:0px;fill:#434343;fill-opacity:1;stroke:none;stroke-width:1px;stroke-linecap:butt;stroke-linejoin:miter;stroke-opacity:1"
         x="319.12573"
         y="269.11969"
         id="text4167"
         sodipodi:linespacing="125%"><tspan
           sodipodi:role="line"
           id="tspan4169"
           x="319.12573"
           y="269.11969"
           style="font-style:normal;font-variant:normal;font-weight:bold;font-stretch:normal;font-size:123.56245422px;font-family:Phenomena;-inkscape-font-specification:'Phenomena Bold';fill:#434343;fill-opacity:1">Hubbing</tspan></text>
      <text
         xml:space="preserve"
         style="font-style:normal;font-weight:normal;font-size:54.91664886px;line-height:125%;font-family:sans-serif;letter-spacing:0px;word-spacing:0px;fill:#434343;fill-opacity:1;stroke:none;stroke-width:1px;stroke-linecap:butt;stroke-linejoin:miter;stroke-opacity:1"
         x="646.32928"
         y="269.1095"
         id="text4167-3"
         sodipodi:linespacing="125%"><tspan
           sodipodi:role="line"
           id="tspan4169-6"
           x="646.32928"
           y="269.1095"
           style="font-style:normal;font-variant:normal;font-weight:bold;font-stretch:normal;font-size:61.7812233px;font-family:Phenomena;-inkscape-font-specification:'Phenomena Bold';fill:#434343;fill-opacity:1">.net</tspan></text>
    </g>
  </g>
</svg>
